<?xml version="1.0" standalone="no"?>
<!DOCTYPE svg PUBLIC "-//W3C//DTD SVG 20010904//EN"
 "http://www.w3.org/TR/2001/REC-SVG-20010904/DTD/svg10.dtd">
<svg version="1.0" xmlns="http://www.w3.org/2000/svg"
 width="786.000000pt" height="800.000000pt" viewBox="0 0 786.000000 800.000000"
 preserveAspectRatio="xMidYMid meet">

<g transform="translate(0.000000,800.000000) scale(0.100000,-0.100000)"
fill="#000000" stroke="none">
<path d="M2243 5580 c-33 -13 -29 -50 10 -98 17 -22 93 -109 168 -193 74 -85
173 -199 219 -254 209 -250 236 -273 286 -240 33 22 40 58 18 94 -11 16 -119
138 -241 272 -122 134 -247 276 -278 314 -51 63 -120 116 -149 114 -6 0 -21
-4 -33 -9z"/>
<path d="M5306 5558 c-33 -32 -302 -332 -414 -461 -106 -123 -172 -217 -172
-246 0 -35 28 -61 66 -61 32 0 65 29 120 105 16 22 61 78 100 125 40 47 106
126 147 175 41 50 125 148 186 219 130 151 136 169 54 174 -47 3 -55 0 -87
-30z"/>
<path d="M965 4135 c-50 -26 -65 -51 -65 -111 0 -44 5 -59 28 -84 16 -19 43
-35 67 -40 23 -6 452 -10 1006 -10 965 0 966 0 993 21 34 27 56 70 56 109 0
37 -13 65 -48 103 l-26 27 -990 0 c-868 0 -995 -2 -1021 -15z"/>
<path d="M3864 4141 c-111 -27 -168 -100 -169 -217 0 -60 4 -76 28 -112 38
-58 95 -85 175 -84 122 1 202 81 210 208 5 78 -8 112 -58 158 -55 49 -114 64
-186 47z m104 -101 c39 -24 67 -78 58 -113 -8 -33 -51 -84 -87 -102 -41 -22
-73 -18 -108 11 -59 50 -58 135 3 192 42 38 85 42 134 12z"/>
<path d="M4730 4130 c-28 -28 -60 -95 -60 -125 0 -31 21 -73 48 -98 18 -17 73
-18 1065 -15 l1045 3 27 25 c65 61 71 143 14 200 l-31 30 -1044 0 c-1023 0
-1044 0 -1064 -20z"/>
<path d="M3762 3094 l-42 -25 2 -872 3 -872 24 -32 c35 -47 83 -66 148 -61 60
5 95 26 131 78 l22 33 0 842 0 842 -24 26 c-65 70 -184 89 -264 41z"/>
<path d="M2813 3028 c-31 -29 -109 -114 -173 -188 -65 -74 -176 -202 -248
-283 -182 -207 -203 -255 -128 -280 38 -13 74 15 168 128 43 52 160 182 260
290 198 214 278 309 278 330 0 20 -49 55 -77 55 -15 0 -44 -19 -80 -52z"/>
<path d="M4752 3070 c-29 -12 -37 -35 -24 -64 9 -21 103 -128 368 -416 57 -63
134 -154 171 -202 92 -121 142 -144 186 -86 l21 28 -40 57 c-57 83 -580 660
-614 678 -33 17 -36 17 -68 5z"/>
<path d="M730 2962 c0 -24 66 -196 115 -299 263 -555 722 -1089 1222 -1422
360 -239 656 -370 1058 -469 212 -52 334 -69 620 -82 300 -14 622 11 900 70
180 39 437 119 560 175 17 8 68 31 115 53 290 132 642 376 908 628 175 166
438 466 426 486 -12 20 -34 3 -97 -76 -343 -432 -821 -810 -1297 -1027 -307
-140 -674 -234 -1054 -270 -162 -15 -597 -6 -752 15 -670 94 -1251 371 -1776
849 -166 150 -395 416 -532 617 -148 218 -291 482 -362 670 -17 46 -37 86 -43
88 -6 2 -11 -1 -11 -6z"/>
</g>
</svg>
